<?xml version="1.0" encoding="utf-8"?>
<!-- Generator: Adobe Illustrator 16.0.0, SVG Export Plug-In . SVG Version: 6.00 Build 0)  -->
<!DOCTYPE svg PUBLIC "-//W3C//DTD SVG 1.1 Tiny//EN" "http://www.w3.org/Graphics/SVG/1.1/DTD/svg11-tiny.dtd">
<svg version="1.1" baseProfile="tiny" id="圖層_1"
	 xmlns="http://www.w3.org/2000/svg" xmlns:xlink="http://www.w3.org/1999/xlink" x="0px" y="0px" width="512px" height="512px"
	 viewBox="0 0 512 512" xml:space="preserve">
<path display="none" fill="#0E83CD" d="M256.4,25.8l-200,115.5L56,371.5l199.6,114.7l200-115.5l0.4-230.2L256.4,25.8z M349,354.6
	l-18.4,10.7l-18.6-11V275H200v79.6l-18.4,10.7l-18.6-11v-197l18.5-10.6l18.5,10.8V237h112v-79.6l18.5-10.6l18.5,10.8V354.6z"/>
<polygon fill="#3F2E24" points="129.679,472.648 5,256.698 129.679,40.748 379.037,40.748 503.716,256.698 379.037,472.648 "/>
<text transform="matrix(1 0 0 1 51.2432 422.459)" fill="#FFFFFF" font-family="'FZSZJW--GB1-0'" font-size="511.2479">w</text>
</svg>
